<?xml version="1.0" standalone="no"?>
<!DOCTYPE svg PUBLIC "-//W3C//DTD SVG 20010904//EN"
 "http://www.w3.org/TR/2001/REC-SVG-20010904/DTD/svg10.dtd">
<svg version="1.0" xmlns="http://www.w3.org/2000/svg"
 width="361.000000pt" height="361.000000pt" viewBox="0 0 361.000000 361.000000"
 preserveAspectRatio="xMidYMid meet">

<g transform="translate(0.000000,361.000000) scale(0.100000,-0.100000)"
fill="#000000" stroke="none">
<path d="M3446 3594 c-14 -36 -5 -66 29 -101 22 -22 31 -39 25 -43 -17 -10 12
-29 40 -28 32 2 50 16 50 39 0 11 5 19 10 19 16 0 12 50 -5 56 -8 4 -15 12
-15 20 0 8 7 14 15 14 8 0 15 9 15 20 0 18 -7 20 -79 20 -63 0 -80 -3 -85 -16z"/>
<path d="M1836 3378 c-25 -22 -46 -48 -46 -58 0 -9 -5 -21 -11 -27 -7 -7 -12
-66 -13 -157 -1 -99 -6 -150 -14 -158 -7 -7 -12 -18 -12 -25 0 -14 -61 -83
-73 -83 -15 0 -265 -124 -303 -151 -24 -16 -46 -29 -51 -29 -4 0 -28 -18 -52
-40 -24 -22 -47 -40 -52 -40 -5 0 -9 -7 -9 -15 0 -8 -9 -15 -20 -15 -11 0 -20
-4 -20 -9 0 -5 -9 -13 -20 -16 -11 -3 -20 -13 -20 -21 0 -8 -6 -14 -13 -14
-13 0 -56 -37 -79 -67 -7 -10 -32 -31 -54 -46 -60 -41 -134 -46 -221 -17 -38
12 -73 26 -78 30 -6 5 -52 22 -103 39 -140 47 -271 39 -301 -17 -25 -47 -4
-130 58 -227 14 -22 35 -70 48 -107 31 -91 94 -194 165 -268 32 -34 58 -68 58
-76 0 -8 4 -14 8 -14 15 0 31 -65 38 -150 6 -80 3 -93 -32 -210 -47 -153 -49
-207 -10 -282 24 -45 30 -71 37 -173 10 -142 25 -200 70 -257 46 -58 51 -63
90 -87 29 -18 51 -21 144 -21 61 0 116 -4 123 -9 8 -4 22 -37 32 -72 10 -35
25 -82 34 -104 8 -22 28 -77 45 -123 31 -84 40 -99 128 -204 l48 -57 516 -1
516 0 17 58 c9 31 30 92 47 134 17 43 27 83 23 89 -4 8 -24 9 -58 5 -52 -6
-76 -24 -76 -58 0 -26 -19 -22 -32 7 -8 19 -8 29 4 46 15 23 88 48 143 49 17
0 35 4 41 8 16 11 32 62 39 126 4 33 11 66 15 75 5 9 13 45 19 81 11 65 20
109 40 185 6 22 11 63 11 91 0 38 7 61 25 89 14 20 30 58 35 84 10 55 25 97
38 105 4 3 8 -3 8 -12 -1 -9 4 -18 9 -19 6 -1 9 5 7 13 -2 9 1 21 6 27 5 7 12
37 15 69 8 80 21 102 59 94 24 -5 28 -3 20 7 -8 10 -8 24 -1 52 6 22 9 58 6
82 -3 31 0 46 13 58 26 24 44 19 26 -7 -20 -28 -20 -39 -2 -63 12 -16 16 -17
30 -6 9 7 16 24 16 37 0 14 6 24 14 24 28 0 35 -62 11 -94 -8 -11 -15 -30 -15
-42 0 -13 -10 -30 -21 -38 -21 -14 -21 -46 0 -46 16 0 59 100 80 184 11 43 25
84 31 90 5 5 25 10 43 11 27 0 35 6 52 40 11 22 34 65 52 96 33 56 41 93 24
103 -17 11 15 87 47 112 19 15 32 35 32 48 0 12 5 27 12 34 20 20 -1 26 -22 7
-24 -21 -35 -15 -25 14 4 15 15 21 34 21 23 0 30 7 45 43 29 72 50 109 63 114
7 3 13 16 13 29 0 27 24 33 34 8 11 -27 7 -37 -9 -24 -12 10 -15 9 -15 -7 0
-28 25 -59 60 -73 31 -13 39 -49 9 -42 -7 2 -23 3 -34 3 -11 0 -32 -1 -47 -1
-18 0 -28 -5 -28 -15 0 -8 9 -15 20 -15 37 0 39 -60 4 -95 -20 -20 -50 -15
-46 7 1 9 -2 19 -8 23 -5 3 -10 -3 -10 -14 0 -12 -4 -21 -10 -21 -18 0 -10
-39 9 -45 21 -6 33 -28 26 -47 -3 -7 -24 -24 -47 -37 -40 -23 -41 -24 -19 -32
12 -5 19 -14 16 -20 -4 -6 -13 -8 -21 -5 -8 3 -23 -3 -34 -14 -21 -21 -27 -50
-10 -50 6 0 10 -9 10 -20 0 -11 -4 -20 -10 -20 -5 0 -17 -14 -26 -31 -8 -17
-11 -30 -6 -28 26 10 102 92 108 117 4 15 15 38 26 51 10 13 18 34 18 47 0 14
10 30 25 40 14 9 25 26 25 38 0 11 6 28 13 37 32 42 107 29 107 -19 0 -21 2
-23 16 -11 23 19 64 86 64 104 0 8 -5 15 -11 15 -8 0 -8 4 0 14 8 9 11 47 9
107 l-3 94 -32 -34 c-21 -21 -43 -34 -63 -35 -40 -2 -41 15 -3 39 40 25 45 49
7 35 -49 -19 -57 -14 -50 31 4 24 2 55 -5 74 -14 37 -5 85 15 85 7 0 25 -9 39
-20 14 -11 31 -20 38 -20 7 0 23 -12 36 -27 l22 -28 1 63 0 64 -33 -21 c-19
-11 -37 -18 -40 -14 -10 9 -8 57 2 68 13 15 22 75 11 75 -11 0 -50 -40 -50
-51 0 -4 5 -11 10 -14 19 -12 10 -33 -16 -39 -33 -9 -54 9 -54 45 0 21 11 37
45 65 43 35 57 66 35 79 -5 3 -10 17 -10 30 0 13 -5 36 -12 51 -11 23 -10 28
12 46 19 16 22 23 13 37 -6 10 -9 38 -6 63 4 32 0 59 -13 87 -16 36 -22 41
-42 36 -13 -3 -33 -3 -44 1 -20 6 -20 6 2 29 11 12 23 40 26 61 l6 39 -44 -47
c-40 -45 -80 -68 -114 -68 -8 0 -12 5 -9 10 16 26 -52 -3 -133 -57 -18 -12
-52 -25 -75 -28 -24 -4 -54 -15 -67 -25 l-24 -18 36 -7 c33 -6 35 -9 35 -45 0
-35 -3 -40 -29 -45 -17 -4 -35 -2 -43 5 -16 13 -11 31 8 29 7 -1 20 -1 31 0
15 1 16 4 6 16 -7 8 -18 15 -25 15 -7 0 -16 7 -19 16 -4 10 -14 14 -26 11 -11
-3 -23 -1 -26 4 -7 12 -114 12 -114 0 0 -5 -19 -12 -42 -16 -42 -7 -74 -25
-136 -78 -23 -19 -43 -27 -65 -26 -60 3 -133 29 -166 60 -52 47 -135 179 -156
248 -14 46 -30 75 -64 109 -25 26 -42 41 -37 35 4 -7 2 -13 -3 -13 -6 0 -11 8
-11 18 0 22 -60 102 -76 102 -7 0 -14 5 -16 10 -3 10 -100 30 -145 30 -12 0
-42 -19 -67 -42z m1597 -370 c12 -7 24 -14 26 -15 1 -1 -9 -26 -23 -57 -14
-30 -26 -57 -26 -60 0 -3 13 -12 30 -21 29 -15 33 -45 5 -45 -6 0 -20 -9 -31
-21 -16 -17 -16 -22 -4 -29 8 -6 18 -10 23 -10 15 0 7 -50 -9 -50 -8 0 -22 -7
-31 -15 -31 -32 -45 8 -17 51 15 22 15 24 1 18 -9 -3 -19 -14 -22 -24 -3 -10
-12 -21 -19 -23 -12 -5 -10 -13 5 -45 20 -40 20 -40 50 -25 27 14 32 13 50 -3
28 -25 24 -34 -17 -34 -27 0 -37 -5 -41 -20 -3 -10 -14 -22 -24 -25 -25 -8
-24 -39 2 -63 l20 -20 -25 -19 c-14 -11 -39 -26 -56 -33 -41 -17 -38 -30 8
-30 21 0 41 -3 44 -6 11 -11 -4 -42 -25 -51 -15 -7 -26 -26 -34 -56 -8 -29
-21 -51 -35 -58 -12 -7 -29 -21 -38 -31 -12 -15 -22 -18 -44 -12 -15 3 -30 12
-33 20 -7 20 15 52 39 57 13 2 2 5 -24 6 -54 1 -65 12 -44 43 9 12 16 37 16
54 0 34 18 54 67 75 23 9 34 23 42 51 14 47 8 62 -20 47 -60 -32 -109 18 -89
91 11 42 33 60 72 60 13 0 39 13 58 29 32 26 34 30 22 55 -7 15 -12 31 -12 36
0 17 27 11 34 -7 14 -35 28 7 30 88 2 53 7 84 14 87 7 2 12 15 12 28 0 19 5
24 25 24 14 0 35 -6 48 -12z m-311 -90 c9 -7 21 -31 27 -53 9 -34 8 -42 -6
-53 -44 -32 -74 5 -65 81 4 39 17 46 44 25z m-284 -81 c-10 -26 -12 -28 -18
-12 -4 10 -5 29 -2 42 3 18 7 21 17 13 11 -9 11 -18 3 -43z m216 -119 c5 -9 7
-20 4 -24 -7 -7 -57 27 -58 39 0 15 43 3 54 -15z m-220 -4 c10 -27 7 -71 -7
-83 -20 -16 -27 -3 -27 51 0 34 4 48 14 48 8 0 17 -7 20 -16z m-670 -64 c21
-21 -3 -37 -58 -38 -41 0 -63 -6 -82 -21 -31 -24 -44 -26 -44 -7 0 16 62 68
93 78 26 8 78 1 91 -12z m786 -28 c0 -5 -9 -17 -20 -27 -16 -14 -19 -26 -14
-51 8 -43 -23 -134 -45 -134 -25 0 -50 54 -45 97 3 20 6 37 7 38 1 0 23 19 49
43 46 40 68 51 68 34z m50 -46 c0 -16 -18 -31 -27 -22 -8 8 5 36 17 36 5 0 10
-6 10 -14z m-330 -36 c0 -12 -91 -72 -98 -65 -10 10 9 36 40 55 36 22 58 26
58 10z m66 -35 c14 -13 34 -27 44 -30 25 -8 23 -59 -2 -81 -10 -10 -18 -27
-18 -39 0 -25 -15 -41 -44 -46 -11 -2 -21 -10 -24 -17 -2 -7 2 -10 11 -6 18 7
30 -32 16 -58 -12 -22 -29 -24 -29 -3 0 9 -9 35 -20 58 -23 47 -39 167 -23
167 6 0 14 -12 17 -26 6 -21 9 -24 21 -14 19 16 19 50 0 64 -17 13 -9 56 11
56 7 0 25 -11 40 -25z m-658 -82 c-7 -9 -21 -12 -37 -8 -46 11 -44 23 3 23 38
-1 44 -4 34 -15z m805 -114 c4 -28 13 -62 22 -76 17 -25 13 -43 -9 -43 -7 0
-23 -11 -36 -25 -30 -32 -50 -32 -50 0 0 14 -6 36 -14 48 -17 26 -10 77 10 77
8 0 17 -13 21 -30 3 -16 9 -30 14 -30 13 0 11 13 -12 65 -23 51 -17 65 27 65
18 0 22 -8 27 -51z m-982 -24 c55 -29 210 -196 165 -179 -9 3 -16 10 -16 14 0
4 -12 11 -26 14 -29 8 -164 -30 -164 -45 0 -5 -7 -9 -15 -9 -21 0 -55 -36 -55
-60 0 -10 -9 -24 -20 -30 -12 -6 -20 -21 -20 -35 0 -14 -4 -25 -10 -25 -17 0
-30 38 -40 122 -5 46 -13 98 -16 116 -9 46 25 82 77 82 21 0 42 7 50 16 11 13
39 30 57 33 2 1 16 -6 33 -14z m1142 -19 c8 -21 -17 -40 -31 -23 -9 10 -8 17
0 25 16 16 25 15 31 -2z m-18 -46 c9 -15 -14 -40 -36 -40 -24 0 -25 26 -1 39
22 13 29 13 37 1z m575 -28 c0 -11 -44 -52 -56 -52 -27 0 -26 24 1 46 25 19
55 23 55 6z m-835 -42 c24 0 40 -23 36 -53 -3 -23 24 -48 43 -41 9 3 16 10 16
15 0 5 9 9 20 9 13 0 18 5 14 15 -7 18 -4 18 30 5 30 -11 32 -22 10 -44 -14
-15 -13 -16 8 -16 13 0 29 5 35 11 15 15 33 3 33 -22 0 -16 5 -18 28 -14 15 2
34 14 44 25 22 28 42 26 33 -2 -36 -114 -36 -133 -5 -141 12 -3 21 -18 25 -41
4 -19 13 -40 20 -46 7 -6 11 -20 8 -30 -4 -15 -13 -19 -37 -17 l-31 2 3 -53
c3 -37 -1 -60 -12 -78 -24 -35 -38 -20 -30 32 3 24 4 44 2 44 -17 0 -68 -34
-68 -45 0 -20 -66 -67 -87 -63 -29 5 -27 35 5 66 51 50 69 99 32 89 -13 -3
-24 1 -30 14 -16 29 -37 23 -56 -16 -28 -61 -36 -57 -38 15 -1 28 -5 34 -18
32 -13 -2 -18 4 -18 21 0 29 40 53 67 42 21 -10 36 -8 86 7 31 9 37 16 37 38
0 51 -25 93 -56 97 -44 5 -71 -5 -77 -27 -8 -32 -37 -25 -37 9 0 37 -19 50
-36 27 -16 -23 -34 -12 -34 19 0 28 19 43 30 25 6 -10 9 -9 15 0 5 8 1 18 -8
25 -10 7 -17 18 -17 25 0 7 -7 18 -16 24 -10 8 -13 18 -7 31 7 18 8 18 11 3 2
-11 13 -18 27 -18z m331 -17 c-10 -10 -19 5 -10 18 6 11 8 11 12 0 2 -7 1 -15
-2 -18z m467 -56 c3 -7 -1 -21 -9 -31 -16 -22 -49 -14 -40 10 3 9 6 20 6 25 0
14 37 11 43 -4z m-1458 -8 c11 -17 -1 -21 -15 -4 -8 9 -8 15 -2 15 6 0 14 -5
17 -11z m740 -409 c9 -29 -5 -109 -22 -126 -9 -8 -13 -18 -10 -21 4 -3 -5 -20
-18 -37 -13 -17 -25 -42 -27 -55 -1 -14 -9 -27 -17 -29 -29 -10 10 184 51 254
23 39 34 42 43 14z m-184 -467 c-10 -17 -10 -16 -11 3 0 23 13 41 18 25 2 -6
-1 -18 -7 -28z"/>
<path d="M3203 2343 c7 -43 20 -58 41 -50 22 9 22 73 0 81 -38 14 -47 7 -41
-31z"/>
<path d="M2690 2329 c0 -5 5 -7 10 -4 6 3 10 8 10 11 0 2 -4 4 -10 4 -5 0 -10
-5 -10 -11z"/>
<path d="M1770 2116 c0 -14 5 -26 10 -26 6 0 10 7 10 15 0 8 0 18 1 22 0 4 -4
9 -10 11 -6 2 -11 -8 -11 -22z"/>
<path d="M1725 2120 c-8 -14 3 -30 21 -30 8 0 14 9 14 20 0 21 -24 28 -35 10z"/>
<path d="M3020 1835 c0 -8 6 -15 14 -15 8 0 16 7 20 15 4 10 -1 15 -14 15 -11
0 -20 -7 -20 -15z"/>
<path d="M3457 3413 c-9 -15 1 -40 18 -47 23 -8 26 10 7 35 -12 14 -21 18 -25
12z"/>
<path d="M3573 3403 c-23 -9 -14 -33 12 -33 18 0 25 5 25 20 0 19 -12 24 -37
13z"/>
<path d="M3527 3293 c-4 -3 -7 -17 -7 -30 0 -25 27 -32 47 -12 22 22 35 -2 31
-58 -3 -29 -1 -56 4 -59 4 -3 8 34 8 82 0 73 -2 85 -14 75 -10 -8 -16 -9 -21
-1 -7 11 -38 14 -48 3z"/>
<path d="M3586 2851 c-11 -12 -16 -24 -12 -28 9 -9 39 22 34 37 -2 7 -10 4
-22 -9z"/>
<path d="M3530 2774 c0 -8 5 -12 10 -9 6 3 10 10 10 16 0 5 -4 9 -10 9 -5 0
-10 -7 -10 -16z"/>
<path d="M3580 2315 c-10 -13 -9 -15 9 -15 12 0 21 6 21 15 0 8 -4 15 -9 15
-5 0 -14 -7 -21 -15z"/>
<path d="M3484 1925 c-10 -8 -29 -15 -41 -15 -22 0 -24 -5 -28 -52 0 -9 -9
-26 -19 -37 -19 -21 -19 -21 2 -21 25 0 28 -19 10 -52 -21 -35 -47 -58 -61
-53 -15 6 -64 -28 -99 -70 -29 -35 -68 -108 -68 -128 0 -8 -19 -40 -41 -71
-36 -51 -40 -61 -30 -82 6 -13 15 -24 20 -24 14 0 41 41 41 62 0 9 13 36 28
60 16 24 36 64 46 90 10 26 22 50 27 54 5 3 18 23 29 45 13 24 28 39 39 39 10
0 21 3 25 7 3 4 15 8 26 10 35 5 23 -38 -25 -91 -25 -26 -45 -57 -45 -67 0
-11 -7 -19 -15 -19 -22 0 -30 -27 -15 -54 16 -31 10 -59 -16 -70 -23 -10 -81
-113 -70 -123 14 -14 42 15 71 75 17 34 33 62 37 62 17 0 20 -51 4 -75 -9 -13
-16 -34 -16 -46 0 -12 -8 -28 -17 -35 -17 -13 -17 -14 4 -20 38 -10 43 -118 5
-112 -20 4 -27 -19 -7 -24 13 -2 9 -11 -19 -43 -20 -22 -36 -43 -36 -46 0 -4
-10 -9 -23 -13 -24 -6 -52 -50 -42 -67 4 -5 15 -9 26 -9 11 0 29 -5 39 -10 17
-9 22 -5 37 27 10 21 27 39 38 41 30 6 45 22 45 48 0 13 9 41 20 61 11 21 20
50 20 66 0 16 5 37 11 48 13 24 -4 49 -32 49 -26 0 -26 60 0 84 10 9 22 31 25
49 4 17 18 43 32 58 24 25 25 30 14 64 -12 36 -11 36 36 80 26 25 45 47 42 50
-9 10 -63 -24 -90 -57 -21 -25 -30 -30 -39 -21 -9 9 -2 23 31 62 32 38 42 59
44 90 1 22 9 48 18 58 8 10 17 25 20 33 3 8 29 23 57 34 l51 18 0 46 c0 43 -1
44 -18 29 -10 -10 -33 -17 -51 -17 -28 0 -33 3 -28 20 6 24 -2 25 -29 5z m-34
-85 c0 -5 -4 -10 -10 -10 -5 0 -10 5 -10 10 0 6 5 10 10 10 6 0 10 -4 10 -10z"/>
<path d="M3570 1651 l-35 -15 29 -4 c29 -4 51 9 45 26 -2 5 -20 2 -39 -7z"/>
<path d="M3144 1575 c-10 -8 -26 -15 -35 -15 -25 0 -46 -23 -53 -57 -4 -24 -2
-33 7 -33 13 0 27 14 86 83 27 32 24 44 -5 22z"/>
<path d="M3596 1501 c-4 -7 -5 -15 -2 -18 9 -9 19 4 14 18 -4 11 -6 11 -12 0z"/>
<path d="M3497 1471 c-34 -16 -36 -19 -21 -32 14 -11 18 -12 22 -1 2 7 15 17
28 22 13 5 24 14 24 20 0 13 -7 12 -53 -9z"/>
<path d="M3016 1428 c-3 -7 -7 -26 -10 -43 l-6 -30 25 30 c28 34 32 55 10 55
-9 0 -17 -6 -19 -12z"/>
<path d="M3582 1392 c2 -11 -3 -26 -10 -35 -15 -18 -3 -51 23 -61 12 -4 15 5
15 54 0 48 -3 60 -16 60 -9 0 -14 -7 -12 -18z"/>
<path d="M2870 1385 c-10 -12 -10 -15 4 -15 9 0 16 7 16 15 0 8 -2 15 -4 15
-2 0 -9 -7 -16 -15z"/>
<path d="M2972 1328 c-31 -31 5 -63 38 -33 19 17 19 19 2 31 -21 17 -25 17
-40 2z"/>
<path d="M2806 1298 c-26 -120 -42 -190 -51 -213 -8 -20 -8 -20 13 -1 23 20
45 84 40 114 -1 9 5 28 15 42 21 31 23 80 2 80 -8 0 -17 -10 -19 -22z"/>
<path d="M2876 1264 c-9 -22 -8 -24 9 -24 8 0 15 9 15 20 0 24 -15 27 -24 4z"/>
<path d="M3072 1248 c-7 -7 -12 -23 -12 -37 l1 -26 19 24 c31 36 23 70 -8 39z"/>
<path d="M3583 1235 c-25 -29 -70 -33 -88 -8 -7 10 -19 14 -29 10 -14 -5 -14
-10 -4 -26 6 -11 22 -24 35 -30 25 -11 30 -30 12 -48 -7 -7 -13 -23 -14 -36
-5 -47 -16 -67 -41 -73 -13 -3 -24 -10 -24 -15 0 -12 36 -30 44 -22 3 3 6 -3
6 -15 0 -27 -26 -52 -55 -52 -30 0 -42 -18 -18 -26 36 -11 48 -22 46 -42 -2
-13 5 -23 17 -27 32 -10 43 4 24 32 -9 14 -12 28 -8 32 16 11 44 81 44 108 0
15 10 37 22 50 14 16 22 37 23 63 1 22 9 48 19 59 11 12 16 31 14 55 l-3 35
-22 -24z"/>
<path d="M2967 1223 c-11 -10 -8 -73 3 -73 6 0 10 18 10 40 0 41 -2 45 -13 33z"/>
<path d="M2860 1175 c-6 -15 -17 -33 -25 -41 -8 -9 -15 -26 -15 -40 0 -13 0
-27 -1 -31 0 -4 4 -9 10 -11 12 -4 61 92 61 120 0 29 -20 31 -30 3z"/>
<path d="M3018 1171 c-20 -12 -26 -21 -22 -35 3 -10 0 -29 -7 -42 -10 -20 -10
-27 6 -45 12 -12 15 -23 9 -27 -6 -4 -10 -27 -11 -52 0 -57 -11 -100 -30 -122
-18 -21 -8 -41 17 -33 15 5 20 0 23 -22 4 -27 4 -27 12 -5 4 12 8 22 9 22 1 0
15 -4 33 -9 25 -7 33 -6 38 7 9 25 -11 37 -40 24 -14 -7 -28 -12 -30 -12 -9 0
-5 69 4 74 15 10 20 61 10 107 -8 34 -7 55 7 97 10 34 13 60 8 71 -8 16 -11
16 -36 2z"/>
<path d="M3148 1152 c-32 -19 -35 -45 -13 -98 22 -52 48 -43 55 19 3 26 11 52
18 59 36 36 -11 51 -60 20z"/>
<path d="M3461 1154 c0 -11 3 -14 6 -6 3 7 2 16 -1 19 -3 4 -6 -2 -5 -13z"/>
<path d="M2771 979 c-19 -38 -40 -69 -49 -69 -10 0 -12 5 -7 18 5 9 10 33 13
52 l4 35 -30 -29 c-26 -24 -29 -31 -19 -48 10 -16 9 -21 -5 -29 -12 -7 -18
-22 -18 -49 0 -35 3 -39 36 -50 46 -16 62 -2 73 66 4 27 17 65 29 84 22 35 29
75 15 83 -5 3 -23 -26 -42 -64z"/>
<path d="M3596 1011 c-4 -7 -5 -15 -2 -18 9 -9 19 4 14 18 -4 11 -6 11 -12 0z"/>
<path d="M2840 960 c0 -5 5 -10 10 -10 6 0 10 5 10 10 0 6 -4 10 -10 10 -5 0
-10 -4 -10 -10z"/>
<path d="M3562 958 c-18 -18 -15 -41 4 -34 9 3 18 6 20 6 2 0 4 9 4 20 0 23
-10 26 -28 8z"/>
<path d="M3331 888 c-7 -20 -23 -44 -37 -53 -31 -20 -58 -13 -49 14 7 23 -11
37 -29 22 -10 -8 -11 -24 -5 -63 5 -32 5 -56 -1 -62 -6 -6 -10 -20 -10 -33 0
-20 5 -23 31 -21 44 4 59 -22 36 -61 -17 -29 -14 -61 5 -61 6 0 8 12 5 28 -5
25 -3 28 25 30 41 3 48 9 48 39 0 16 -7 27 -20 30 -28 7 -27 62 2 98 20 26 44
120 27 110 -4 -3 -9 1 -12 7 -2 7 -9 -4 -16 -24z"/>
<path d="M2816 894 c-10 -27 -7 -44 9 -44 10 0 15 10 15 30 0 32 -14 40 -24
14z"/>
<path d="M3597 893 c-4 -12 -24 -31 -43 -42 -19 -11 -36 -26 -38 -33 -2 -7 -8
-28 -14 -47 -10 -31 -9 -36 18 -61 17 -16 30 -37 30 -48 0 -11 7 -25 15 -32
25 -20 45 5 45 57 0 40 -2 43 -19 33 -23 -12 -26 -8 -35 42 -6 32 -3 39 24 60
26 21 31 30 28 59 -3 30 -4 31 -11 12z"/>
<path d="M2874 815 c5 -20 2 -26 -19 -31 -14 -3 -25 -10 -25 -14 0 -5 -3 -15
-6 -24 -10 -27 25 -31 52 -6 29 28 35 100 8 100 -12 0 -15 -6 -10 -25z"/>
<path d="M3400 830 c0 -5 9 -10 20 -10 11 0 20 5 20 10 0 6 -9 10 -20 10 -11
0 -20 -4 -20 -10z"/>
<path d="M2653 780 c-7 -11 -13 -30 -13 -44 0 -13 -7 -40 -16 -61 -8 -20 -13
-40 -10 -43 9 -9 36 20 36 39 0 10 8 34 17 53 11 25 14 41 7 56 -9 20 -9 20
-21 0z"/>
<path d="M2920 768 c0 -4 4 -18 10 -32 7 -19 5 -29 -6 -41 -12 -12 -13 -19 -4
-30 9 -11 7 -18 -9 -34 -22 -22 -28 -65 -12 -76 16 -9 61 17 66 39 3 12 10 41
16 66 25 103 25 101 -11 94 -22 -5 -35 -3 -41 7 -5 8 -9 11 -9 7z"/>
<path d="M3055 749 c-4 -6 3 -21 16 -35 17 -18 25 -21 36 -13 17 15 16 24 -3
43 -18 18 -40 21 -49 5z"/>
<path d="M2758 726 c-19 -14 -23 -26 -10 -26 4 0 13 9 20 20 14 23 13 24 -10
6z"/>
<path d="M3440 714 c-14 -7 -33 -14 -42 -14 -10 0 -18 -7 -18 -15 0 -25 63
-19 88 8 33 35 17 46 -28 21z"/>
<path d="M2831 666 c-16 -19 -26 -76 -13 -76 15 0 42 40 42 62 0 23 -15 31
-29 14z"/>
<path d="M3150 660 l-45 -18 3 -48 c4 -55 6 -59 21 -49 6 3 11 23 11 43 0 33
4 39 30 49 17 6 30 18 30 27 0 9 -1 16 -2 15 -2 -1 -23 -9 -48 -19z"/>
<path d="M3469 627 c-21 -27 -24 -37 -16 -60 7 -21 5 -34 -7 -52 -9 -14 -12
-25 -7 -25 20 0 42 -32 31 -45 -6 -7 -7 -20 -4 -29 4 -9 0 -24 -9 -34 -8 -9
-18 -32 -22 -50 -4 -18 -17 -44 -30 -58 -19 -20 -22 -30 -15 -45 6 -10 15 -28
20 -39 15 -30 12 -44 -16 -71 -21 -19 -64 -96 -64 -115 0 -2 24 -4 54 -4 75 0
144 30 151 67 4 15 8 37 11 48 3 11 9 34 13 52 5 19 5 35 -2 42 -16 16 13 101
35 101 16 0 17 12 17 115 -1 114 -1 115 -24 115 -13 0 -35 -4 -50 -10 -21 -8
-27 -7 -31 8 -3 9 -9 25 -14 34 -6 10 -5 29 1 48 15 43 8 45 -22 7z m56 -327
c0 -22 -29 -18 -33 3 -3 14 1 18 15 15 10 -2 18 -10 18 -18z"/>
<path d="M2677 637 c-7 -19 4 -107 14 -107 5 0 11 12 15 28 3 15 10 40 15 56
12 38 13 36 -15 36 -13 0 -26 -6 -29 -13z"/>
<path d="M3030 611 c0 -5 6 -14 14 -20 11 -9 16 -9 21 0 4 6 1 15 -6 20 -18
11 -29 11 -29 0z"/>
<path d="M3317 572 c-10 -10 -17 -30 -17 -45 0 -14 -4 -29 -10 -32 -5 -3 -10
-15 -10 -26 0 -12 -7 -19 -20 -19 -11 0 -20 -4 -20 -9 0 -13 -134 -101 -154
-101 -20 0 -21 -26 -1 -34 8 -3 15 -11 15 -19 0 -7 11 -24 25 -37 23 -21 26
-22 49 -7 16 11 35 14 60 10 41 -6 53 -18 38 -36 -13 -16 -8 -85 7 -100 23
-23 32 7 44 151 4 46 1 51 -18 26 -7 -10 -30 -18 -63 -20 -43 -3 -53 0 -62 16
-7 13 -6 22 3 32 7 7 23 28 36 46 17 25 27 31 45 26 19 -4 26 3 53 58 48 99
48 173 0 120z"/>
<path d="M2792 549 c-15 -24 -4 -43 17 -29 11 6 12 14 5 29 l-9 21 -13 -21z"/>
<path d="M2833 481 c-26 -29 -39 -52 -34 -60 6 -9 25 4 64 42 31 30 53 58 50
61 -16 15 -41 1 -80 -43z"/>
<path d="M2756 472 c-8 -15 -17 -46 -21 -67 l-7 -40 20 20 c18 18 41 115 28
115 -3 0 -12 -13 -20 -28z"/>
<path d="M2950 485 c0 -9 -11 -20 -25 -25 -30 -12 -33 -45 -5 -53 28 -7 25
-26 -6 -37 -34 -13 -25 -35 15 -35 29 0 31 -2 26 -25 -3 -14 -17 -42 -31 -62
-13 -21 -20 -38 -15 -38 5 0 11 7 15 15 3 8 12 15 19 15 8 0 22 16 32 34 18
33 18 36 2 54 -10 11 -15 25 -13 33 3 8 7 42 10 77 3 49 1 62 -10 62 -8 0 -14
-7 -14 -15z"/>
<path d="M2661 476 c-14 -17 -9 -46 8 -46 16 0 22 17 13 40 -7 19 -9 20 -21 6z"/>
<path d="M3065 480 c-3 -5 1 -10 9 -10 9 0 16 5 16 10 0 6 -4 10 -9 10 -6 0
-13 -4 -16 -10z"/>
<path d="M2587 474 c-4 -4 -7 -18 -7 -31 0 -26 27 -32 37 -7 6 17 -19 49 -30
38z"/>
<path d="M3354 435 c-3 -8 -3 -19 0 -24 10 -16 36 -1 36 20 0 22 -28 26 -36 4z"/>
<path d="M2647 393 c-8 -13 2 -43 14 -43 5 0 9 -13 9 -29 0 -31 16 -50 30 -35
4 5 11 26 14 48 7 38 7 38 -19 32 -20 -5 -27 -2 -34 15 -4 14 -10 18 -14 12z"/>
<path d="M2797 387 c-11 -29 -9 -43 4 -30 6 6 9 19 7 29 -3 18 -4 18 -11 1z"/>
<path d="M3367 369 c-22 -13 -24 -51 -2 -43 19 8 38 41 27 48 -4 2 -15 0 -25
-5z"/>
<path d="M3270 355 c-10 -12 -10 -15 3 -15 19 0 31 16 18 24 -5 3 -14 -1 -21
-9z"/>
<path d="M2538 272 c-20 -41 -26 -110 -13 -132 11 -18 33 43 42 117 7 62 -5
68 -29 15z"/>
<path d="M3023 261 c-10 -16 -8 -18 18 -17 20 1 28 5 24 14 -3 8 -5 16 -5 18
0 12 -27 1 -37 -15z"/>
<path d="M2710 250 c-8 -5 -27 -10 -42 -10 -16 0 -28 -4 -28 -10 0 -5 11 -10
25 -10 34 0 53 -37 28 -56 -10 -7 -23 -14 -29 -14 -25 0 -33 -61 -12 -87 16
-19 1 -31 -37 -30 -21 1 -42 -6 -52 -16 -16 -16 -13 -17 55 -17 62 0 72 2 72
18 0 9 9 28 19 41 14 19 17 30 9 46 -7 16 -5 32 6 60 17 39 22 95 9 95 -5 0
-15 -5 -23 -10z"/>
<path d="M2945 210 c-3 -6 -3 -19 0 -31 7 -19 7 -20 21 -2 7 10 14 24 14 31 0
14 -26 16 -35 2z"/>
<path d="M3037 173 c-4 -3 -7 -11 -7 -17 0 -6 5 -5 12 2 6 6 9 14 7 17 -3 3
-9 2 -12 -2z"/>
<path d="M2836 151 c-3 -5 -2 -31 3 -57 10 -53 7 -64 -15 -64 -8 0 -14 -4 -14
-8 0 -5 10 -8 21 -7 16 1 25 14 38 51 12 37 21 50 39 52 12 2 22 9 22 17 0 21
-82 35 -94 16z"/>
<path d="M2997 113 c-5 -42 6 -64 24 -46 11 11 2 83 -11 83 -4 0 -10 -17 -13
-37z"/>
<path d="M3148 132 c-4 -12 0 -26 8 -33 8 -7 14 -30 14 -55 0 -52 25 -62 34
-14 3 16 9 44 12 62 5 27 4 30 -12 24 -13 -5 -23 0 -35 15 l-16 22 -5 -21z"/>
<path d="M2742 33 c-20 -24 -20 -28 -7 -31 17 -4 44 24 45 46 0 20 -15 14 -38
-15z"/>
<path d="M2897 33 c-16 -15 -6 -34 15 -31 29 4 38 38 10 38 -10 0 -22 -3 -25
-7z"/>
<path d="M3078 3 c6 -2 18 -2 25 0 6 3 1 5 -13 5 -14 0 -19 -2 -12 -5z"/>
</g>
</svg>
